# xmcd CD database file
#
# Track frame offsets:
#	150
#	50307
#	140801
#	212539
#	281602
#	330038
#
# Disc length: 4774 seconds
#
# Revision: 0
# Processed by: cddbd v1.5.1PL2 Copyright (c) Steve Scherf et al.
# Submitted via: CDex 1.51
#
DISCID=5112a406
DTITLE=Brainwork - Soundclouds
DYEAR=2006
DGENRE=New Age
TTITLE0=Rainpearls
TTITLE1=Silverlake
TTITLE2=Polarlight
TTITLE3=Sky Trains
TTITLE4=Summer Clouds
TTITLE5=Eternal Ascend
EXTD=YEAR: 2006
EXTT0=
EXTT1=
EXTT2=
EXTT3=
EXTT4=
EXTT5=
PLAYORDER=
